<svg xmlns="http://www.w3.org/2000/svg" viewBox="0 0 20 20"><g fill="none" fill-rule="evenodd"><path d="M0 20h20V0H0"/><path fill="#fff" d="M16.7378489 4.42625c-.462-.557-1.308-.588-1.82-.076l-.0175.018c-.4555.455-.476 1.1765-.067 1.674 1.0015 1.221 1.551 2.826 1.3885 4.558-.284 3.0275-2.782 5.445-5.817 5.637-3.6285.23-6.6545-2.657-6.6545-6.237 0-3.4465 2.8035-6.25 6.25-6.25v1.25l2.4995-2.5-2.4995-2.5v1.25c-5.032 0-9.085 4.269-8.7285 9.375.3015 4.3105 3.793 7.802 8.103 8.103 5.106.357 9.3755-3.6965 9.3755-8.728 0-2.117-.7565-4.0595-2.0125-5.574"/></g></svg>
