<svg id="flat" xmlns="http://www.w3.org/2000/svg" viewBox="0 0 20 20"><path d="M18.5,8.94,16.32,8.5h0a6.46,6.46,0,0,0-.79-1.9h0l1.23-1.85a1.08,1.08,0,0,0-1.5-1.5L13.41,4.47h0a6.45,6.45,0,0,0-1.9-.79h0L11.06,1.5a1.08,1.08,0,0,0-2.12,0L8.5,3.68h0a6.45,6.45,0,0,0-1.9.79h0L4.74,3.24a1.08,1.08,0,0,0-1.5,1.5L4.47,6.59h0a6.45,6.45,0,0,0-.79,1.9h0L1.5,8.94a1.08,1.08,0,0,0,0,2.12l2.18.44h0a6.45,6.45,0,0,0,.79,1.9h0L3.24,15.26a1.08,1.08,0,0,0,1.5,1.5l1.85-1.23h0a6.45,6.45,0,0,0,1.9.79h0l.44,2.18a1.08,1.08,0,0,0,2.12,0l.44-2.18h0a6.45,6.45,0,0,0,1.9-.79h0l1.85,1.23a1.08,1.08,0,0,0,1.5-1.5l-1.23-1.85h0a6.45,6.45,0,0,0,.79-1.9h0l2.18-.44a1.08,1.08,0,0,0,0-2.12ZM10,13.5A3.5,3.5,0,1,1,13.5,10,3.5,3.5,0,0,1,10,13.5Z" fill="#0079D3"/></svg>